<?xml version="1.0" encoding="UTF-8"?>
<svg width="56px" height="56px" viewBox="0 0 56 56" version="1.1" xmlns="http://www.w3.org/2000/svg" xmlns:xlink="http://www.w3.org/1999/xlink">
    <title>Group 3</title>
    <g id="Portfolio" stroke="none" stroke-width="1" fill="none" fill-rule="evenodd">
        <g id="Desktop-HD-Copy-26" transform="translate(-1602.000000, -2633.000000)">
            <g id="Group-5" transform="translate(240.000000, 1694.000000)">
                <g id="Group-3" transform="translate(1362.000000, 939.000000)">
                    <circle id="Oval" fill="#4832ED" cx="28" cy="28" r="28"></circle>
                    <g id="Group-2" transform="translate(27.500000, 28.500000) rotate(-315.000000) translate(-27.500000, -28.500000) translate(14.000000, 15.000000)" fill="#F0F0F0">
                        <rect id="Rectangle" x="12" y="0" width="3" height="3"></rect>
                        <rect id="Rectangle-Copy" x="9" y="3" width="3" height="3"></rect>
                        <rect id="Rectangle-Copy-5" x="15" y="3" width="3" height="3"></rect>
                        <rect id="Rectangle-Copy-10" x="12" y="6" width="3" height="3"></rect>
                        <rect id="Rectangle-Copy-11" x="12" y="9" width="3" height="3"></rect>
                        <rect id="Rectangle-Copy-12" x="12" y="12" width="3" height="3"></rect>
                        <rect id="Rectangle-Copy-13" x="12" y="15" width="3" height="3"></rect>
                        <rect id="Rectangle-Copy-14" x="12" y="18" width="3" height="3"></rect>
                        <rect id="Rectangle-Copy-15" x="12" y="21" width="3" height="3"></rect>
                        <rect id="Rectangle-Copy-16" x="12" y="24" width="3" height="3"></rect>
                        <rect id="Rectangle-Copy-6" x="18" y="6" width="3" height="3"></rect>
                        <rect id="Rectangle-Copy-7" x="21" y="9" width="3" height="3"></rect>
                        <rect id="Rectangle-Copy-8" x="24" y="12" width="3" height="3"></rect>
                        <rect id="Rectangle-Copy-2" x="6" y="6" width="3" height="3"></rect>
                        <rect id="Rectangle-Copy-3" x="3" y="9" width="3" height="3"></rect>
                        <rect id="Rectangle-Copy-4" x="0" y="12" width="3" height="3"></rect>
                    </g>
                </g>
            </g>
        </g>
    </g>
</svg>