<?xml version="1.0" encoding="UTF-8"?>
<svg width="14px" height="14px" viewBox="0 0 14 14" version="1.1" xmlns="http://www.w3.org/2000/svg" xmlns:xlink="http://www.w3.org/1999/xlink">
    <title>Combined Shape</title>
    <g id="Portfolio" stroke="none" stroke-width="1" fill="none" fill-rule="evenodd">
        <g id="Artboard" transform="translate(-1.000000, -1.000000)" fill="#4832ED">
            <path d="M8,1 C11.8659932,1 15,4.13400675 15,8 C15,11.8659932 11.8659932,15 8,15 C4.13400675,15 1,11.8659932 1,8 C1,4.13400675 4.13400675,1 8,1 Z M4.66666667,8.06122449 L3.66666667,8.06122449 L3.66666667,9.06122449 L4.66666667,9.06122449 L4.66666667,10.0408163 L5.66666667,10.0408163 L5.66666667,11.0204082 L10.6666667,11.0204082 L10.6666667,10.0408163 L11.6666667,10.0408163 L11.6666667,9.06122449 L12.6666667,9.06122449 L12.6666667,8.06122449 L11.6666667,8.06122449 L11.6666667,9.04081633 L10.6666667,9.04081633 L10.6666667,10.0204082 L5.66666667,10.0204082 L5.66666667,9.04081633 L4.66666667,9.04081633 L4.66666667,8.06122449 Z M7.41666667,5 L6.41666667,5 L6.41666667,6.97959184 L7.41666667,6.97959184 L7.41666667,5 Z M9.79166667,5 L8.79166667,5 L8.79166667,6.97959184 L9.79166667,6.97959184 L9.79166667,5 Z" id="Combined-Shape"></path>
        </g>
    </g>
</svg>