<?xml version="1.0" encoding="UTF-8"?>
<svg width="46px" height="46px" viewBox="0 0 46 46" version="1.1" xmlns="http://www.w3.org/2000/svg" xmlns:xlink="http://www.w3.org/1999/xlink">
    <title>Group 4</title>
    <g id="Portfolio" stroke="none" stroke-width="1" fill="none" fill-rule="evenodd">
        <g id="Desktop-HD-Copy-21" transform="translate(-238.000000, -78.000000)">
            <g id="Group-4" transform="translate(240.000000, 80.000000)">
                <circle id="Oval" stroke="#FFFFFF" stroke-width="4" cx="21" cy="21" r="21"></circle>
                <g id="Group" transform="translate(8.000000, 12.000000)" fill="#FFFFFF">
                    <rect id="Rectangle-Copy-9" x="0" y="9.18367347" width="3" height="2.93877551"></rect>
                    <rect id="Rectangle-Copy-34" transform="translate(25.500000, 10.653061) scale(-1, 1) translate(-25.500000, -10.653061) " x="24" y="9.18367347" width="3" height="2.93877551"></rect>
                    <rect id="Rectangle-Copy-17" x="3" y="12.122449" width="3" height="2.93877551"></rect>
                    <rect id="Rectangle-Copy-35" transform="translate(22.500000, 13.591837) scale(-1, 1) translate(-22.500000, -13.591837) " x="21" y="12.122449" width="3" height="2.93877551"></rect>
                    <rect id="Rectangle-Copy-36" transform="translate(9.750000, 4.408163) scale(-1, 1) translate(-9.750000, -4.408163) " x="8.25" y="2.93877551" width="3" height="2.93877551"></rect>
                    <rect id="Rectangle-Copy-38" transform="translate(9.750000, 1.469388) scale(-1, 1) translate(-9.750000, -1.469388) " x="8.25" y="0" width="3" height="2.93877551"></rect>
                    <rect id="Rectangle-Copy-37" transform="translate(16.875000, 4.408163) scale(-1, 1) translate(-16.875000, -4.408163) " x="15.375" y="2.93877551" width="3" height="2.93877551"></rect>
                    <rect id="Rectangle-Copy-39" transform="translate(16.875000, 1.469388) scale(-1, 1) translate(-16.875000, -1.469388) " x="15.375" y="0" width="3" height="2.93877551"></rect>
                    <rect id="Rectangle-Copy-18" x="6" y="15.0612245" width="3" height="2.93877551"></rect>
                    <rect id="Rectangle-Copy-25" x="9" y="15.0612245" width="3" height="2.93877551"></rect>
                    <rect id="Rectangle-Copy-31" x="12" y="15.0612245" width="3" height="2.93877551"></rect>
                    <rect id="Rectangle-Copy-32" x="15" y="15.0612245" width="3" height="2.93877551"></rect>
                    <rect id="Rectangle-Copy-33" x="18" y="15.0612245" width="3" height="2.93877551"></rect>
                </g>
            </g>
        </g>
    </g>
</svg>